# File created by Blade
# Date/Time:  Tue Jan 27 18:55:59 2015
#---------------------------------------------------------
:version 1.10
:name HOM
:units
  mass 1.0
  length 1.000000
  angle deg
:documentation
     Acclaim Skeleton File
:root
   axis xyz
   order TX TY TZ RX RY RZ
   position 0.000000 0.000000 0.000000
   orientation 0 0 0
:bonedata
   begin
      id 1
      name Spine_dum
      direction 0.000000 1.000000 0.000000
      length 5.195262
      axis 0.0 0.0 0.0 xyz
   end
   begin
      id 2
      name LeftUpLeg_dum
      direction 1.000000 0.000000 0.000000
      length 3.351363
      axis 0.0 0.0 0.0 xyz
   end
   begin
      id 3
      name RightUpLeg_dum
      direction -1.000000 0.000000 0.000000
      length 3.351363
      axis 0.0 0.0 0.0 xyz
   end
   begin
      id 4
      name Spine
      direction 0.000000 1.000000 0.000000
      length 0.000000
      axis 0.0 0.0 0.0 xyz
      dof rx ry rz
   end
   begin
      id 5
      name Spine_dum1
      direction 0.000000 1.000000 0.000000
      length 15.653875
      axis 0.0 0.0 0.0 xyz
   end
   begin
      id 6
      name Spine_dum2
      direction 0.000000 1.000000 0.000000
      length 10.329768
      axis 0.0 0.0 0.0 xyz
   end
   begin
      id 7
      name Spine_dum3
      direction 0.000000 1.000000 0.000000
      length 10.329768
      axis 0.0 0.0 0.0 xyz
   end
   begin
      id 8
      name Head
      direction 0.000000 1.000000 0.000000
      length 4.527550
      axis 0.0 0.0 0.0 xyz
      dof rx ry rz
   end
   begin
      id 9
      name LeftShoulder
      direction 1.000000 0.000000 0.000000
      length 6.996006
      axis 0.0 0.0 -90.0 xyz
      dof rx ry rz
   end
   begin
      id 10
      name LeftArm
      direction 1.000000 0.000000 0.000000
      length 10.209302
      axis 0.0 0.0 -90.0 xyz
      dof rx ry rz
   end
   begin
      id 11
      name LeftForeArm
      direction 1.000000 0.000000 0.000000
      length 8.563163
      axis 0.0 0.0 -90.0 xyz
      dof ry rz rx
   end
   begin
      id 12
      name LeftHand
      direction 0.000000 0.000000 0.000000
      length 0.000000
      axis 0.0 0.0 -90.0 xyz
      dof rx ry rz
   end
   begin
      id 13
      name LeftHand_dum1
      direction 0.000000 0.000000 0.000000
      length 0.000000
      axis 0.0 0.0 -90.0 xyz
   end
   begin
      id 14
      name LeftHand_dum2
      direction 1.000000 0.000000 0.000000
      length 3.937000
      axis 0.0 0.0 -90.0 xyz
   end
   begin
      id 15
      name LeftHandThumb1
      direction 0.000000 0.000000 1.000000
      length 3.937000
      axis 0.0 0.0 -90.0 xyz
      dof rx rz ry
   end
   begin
      id 16
      name RightShoulder
      direction -1.000000 0.000000 0.000000
      length 6.996006
      axis 0.0 0.0 90.0 xyz
      dof rx ry rz
   end
   begin
      id 17
      name RightArm
      direction -1.000000 0.000000 0.000000
      length 10.209302
      axis 0.0 0.0 90.0 xyz
      dof rx ry rz
   end
   begin
      id 18
      name RightForeArm
      direction -1.000000 0.000000 0.000000
      length 8.563163
      axis 0.0 0.0 90.0 xyz
      dof ry rz rx
   end
   begin
      id 19
      name RightHand
      direction 0.000000 0.000000 0.000000
      length 0.000000
      axis 0.0 0.0 90.0 xyz
      dof rx ry rz
   end
   begin
      id 20
      name RightHand_dum1
      direction 0.000000 0.000000 0.000000
      length 0.000000
      axis 0.0 0.0 90.0 xyz
   end
   begin
      id 21
      name RightHand_dum2
      direction -1.000000 0.000000 0.000000
      length 3.937000
      axis 0.0 0.0 90.0 xyz
   end
   begin
      id 22
      name RightHandThumb1
      direction 0.000000 0.000000 1.000000
      length 3.937000
      axis 0.0 0.0 90.0 xyz
      dof rx rz ry
   end
   begin
      id 23
      name LeftUpLeg
      direction 0.000000 -1.000000 0.000000
      length 16.346831
      axis 0.0 0.0 0.0 xyz
      dof rx ry rz
   end
   begin
      id 24
      name LeftLeg
      direction 0.000000 -1.000000 0.000000
      length 13.959795
      axis 0.0 0.0 0.0 xyz
      dof rx ry rz
   end
   begin
      id 25
      name LeftFoot
      direction 0.000000 -0.258819 0.965926
      length 5.165550
      axis 15.0 0.0 0.0 xyz
      dof rx ry rz
   end
   begin
      id 26
      name LeftToeBase
      direction 0.000000 0.000000 1.000000
      length 2.952750
      axis 0.0 0.0 0.0 xyz
      dof rx ry rz
   end
   begin
      id 27
      name RightUpLeg
      direction 0.000000 -1.000000 0.000000
      length 16.346831
      axis 0.0 0.0 0.0 xyz
      dof rx ry rz
   end
   begin
      id 28
      name RightLeg
      direction 0.000000 -1.000000 0.000000
      length 13.959795
      axis 0.0 0.0 0.0 xyz
      dof rx ry rz
   end
   begin
      id 29
      name RightFoot
      direction 0.000000 -0.258819 0.965926
      length 5.165550
      axis 15.0 0.0 0.0 xyz
      dof rx ry rz
   end
   begin
      id 30
      name RightToeBase
      direction 0.000000 0.000000 1.000000
      length 2.952750
      axis 0.0 0.0 0.0 xyz
      dof rx ry rz
   end
:hierarchy
   begin
      root Spine_dum LeftUpLeg_dum RightUpLeg_dum
      Spine_dum Spine
      LeftUpLeg_dum LeftUpLeg
      RightUpLeg_dum RightUpLeg
      Spine Spine_dum1 Spine_dum2 Spine_dum3
      Spine_dum1 Head
      Spine_dum2 LeftShoulder
      Spine_dum3 RightShoulder
      LeftShoulder LeftArm
      LeftArm LeftForeArm
      LeftForeArm LeftHand
      LeftHand LeftHand_dum1 LeftHand_dum2
      LeftHand_dum1 LeftHandThumb1
      RightShoulder RightArm
      RightArm RightForeArm
      RightForeArm RightHand
      RightHand RightHand_dum1 RightHand_dum2
      RightHand_dum1 RightHandThumb1
      LeftUpLeg LeftLeg
      LeftLeg LeftFoot
      LeftFoot LeftToeBase
      RightUpLeg RightLeg
      RightLeg RightFoot
      RightFoot RightToeBase
   end

# File created by Blade
# Date/Time:  Tue Jan 27 18:55:50 2015
# Frame Rate: 120.000 fps
#------------------------------------------------------
:FULLY-SPECIFIED
:DEGREES
1589
root -0.108558 31.784400 -5.047388 5.363796 -14.999022 -10.651941
Spine 3.823646 -6.530091 2.665896
Head 10.777365 -16.895993 12.671849
LeftShoulder -15.862366 18.093301 13.550180
LeftArm 2.064107 -38.702214 -76.399923
LeftForeArm -5.742387 -0.000000 104.615942
LeftHand -12.591959 0.000000 20.196222
LeftHandThumb1 -26.253704 0.000000 33.147579
RightShoulder -11.336329 -0.578683 -6.982100
RightArm 12.237086 -35.509471 72.698820
RightForeArm -27.447771 0.000000 24.934399
RightHand -13.699959 -0.000000 12.469740
RightHandThumb1 -24.326973 -0.000000 -32.862282
LeftUpLeg -7.547705 12.916334 -2.357545
LeftLeg 17.343884 -0.000000 -0.000000
LeftFoot -34.458927 31.231788 -23.512982
LeftToeBase 9.051557 -0.000000 -0.000000
RightUpLeg -49.231011 -22.545937 0.504778
RightLeg 48.768669 -0.000000 -0.000000
RightFoot -4.249600 -11.443007 11.255006
RightToeBase 15.792888 -0.000000 -0.000000
1590
root -0.099502 31.781191 -5.050920 5.321216 -15.060244 -10.659307
Spine 3.885771 -6.569261 2.629341
Head 10.857852 -16.831467 12.623417
LeftShoulder -15.946485 18.154856 13.540855
LeftArm 2.077772 -38.777661 -76.402323
LeftForeArm -5.871756 0.000000 104.571601
LeftHand -12.440497 -0.000000 20.156291
LeftHandThumb1 -26.253704 0.000000 33.147579
RightShoulder -11.312526 -0.608469 -6.954308
RightArm 12.204066 -35.517484 72.724300
RightForeArm -27.466796 -0.000000 24.836036
RightHand -13.762592 -0.000000 12.570853
RightHandThumb1 -24.326973 -0.000000 -32.862282
LeftUpLeg -7.530982 13.012561 -2.355485
LeftLeg 17.404799 -0.000000 -0.000000
LeftFoot -34.516455 31.134462 -23.585986
LeftToeBase 9.091769 -0.000000 -0.000000
RightUpLeg -49.024259 -22.443455 0.295713
RightLeg 46.158869 -0.000000 -0.000000
RightFoot -4.443581 -11.946420 10.998154
RightToeBase 14.817464 -0.000000 -0.000000
1591
root -0.087131 31.778258 -5.055052 5.270761 -15.107941 -10.651285
Spine 3.935724 -6.528186 2.585120
Head 10.984912 -16.873964 12.581008
LeftShoulder -15.903553 18.198125 13.591000
LeftArm 2.089703 -38.857838 -76.433694
LeftForeArm -5.909039 0.000000 104.525055
LeftHand -12.341867 -0.000000 20.207423
LeftHandThumb1 -26.253704 0.000000 33.147579
RightShoulder -11.359800 -0.687243 -6.910308
RightArm 12.195696 -35.525217 72.706154
RightForeArm -27.479542 -0.000000 24.756862
RightHand -13.665045 -0.000000 12.569751
RightHandThumb1 -24.326973 -0.000000 -32.862282
LeftUpLeg -7.519556 13.107388 -2.375517
LeftLeg 17.468047 -0.000000 -0.000000
LeftFoot -34.610646 30.987125 -23.774940
LeftToeBase 9.091845 -0.000000 -0.000000
RightUpLeg -48.792625 -22.340501 0.011611
RightLeg 43.551358 -0.000000 -0.000000
RightFoot -4.670464 -12.380589 10.900136
RightToeBase 13.914304 -0.000000 -0.000000
1592
root -0.075864 31.774925 -5.056464 5.187129 -15.146602 -10.622455
Spine 4.013306 -6.490719 2.519401
Head 11.110532 -16.898788 12.521554
LeftShoulder -15.827882 18.253338 13.654611
LeftArm 2.097473 -38.960964 -76.457103
LeftForeArm -5.915715 0.000000 104.478944
LeftHand -12.361114 -0.000000 20.461522
LeftHandThumb1 -26.253704 0.000000 33.147579
RightShoulder -11.438121 -0.754208 -6.859517
RightArm 12.178735 -35.580507 72.669253
RightForeArm -27.430302 -0.000000 24.731023
RightHand -13.731184 -0.000000 12.545677
RightHandThumb1 -24.326973 -0.000000 -32.862282
LeftUpLeg -7.457102 13.143453 -2.398127
LeftLeg 17.518982 -0.000000 -0.000000
LeftFoot -34.673355 30.791278 -24.061636
LeftToeBase 8.634667 -0.000000 -0.000000
RightUpLeg -48.525796 -22.285148 -0.259771
RightLeg 40.872485 -0.000000 -0.000000
RightFoot -4.877869 -12.970136 10.619874
RightToeBase 12.826664 -0.000000 -0.000000
1593
root -0.064985 31.772315 -5.055908 5.104540 -15.190721 -10.593303
Spine 4.076456 -6.480315 2.453571
Head 11.265666 -16.881884 12.440027
LeftShoulder -15.767662 18.282789 13.719361
LeftArm 2.049893 -39.080929 -76.452182
LeftForeArm -5.859033 -0.000000 104.420555
LeftHand -12.319954 -0.000000 20.710596
LeftHandThumb1 -26.253704 0.000000 33.147579
RightShoulder -11.482466 -0.848239 -6.794559
RightArm 12.173674 -35.551698 72.643631
RightForeArm -27.440675 -0.000000 24.675374
RightHand -13.727868 -0.000000 12.550127
RightHandThumb1 -24.326973 -0.000000 -32.862282
LeftUpLeg -7.382490 13.191405 -2.423166
LeftLeg 17.535892 -0.000000 -0.000000
LeftFoot -34.717851 30.836250 -24.059952
LeftToeBase 8.831928 -0.000000 -0.000000
RightUpLeg -48.202436 -22.155874 -0.624408
RightLeg 38.151882 -0.000000 -0.000000
RightFoot -5.186642 -13.576527 10.588935
RightToeBase 12.068179 -0.000000 -0.000000
1594
root -0.051676 31.770083 -5.057664 5.036243 -15.238281 -10.560613
Spine 4.135785 -6.439413 2.405468
Head 11.393488 -16.888896 12.323789
LeftShoulder -15.694998 18.263220 13.764729
LeftArm 1.988380 -39.224509 -76.411656
LeftForeArm -5.725647 0.000000 104.337352
LeftHand -12.328747 -0.000000 20.817851
LeftHandThumb1 -26.253704 0.000000 33.147579
RightShoulder -11.572516 -0.890972 -6.758411
RightArm 12.144308 -35.620244 72.614890
RightForeArm -27.355727 -0.000000 24.638526
RightHand -13.821458 0.000000 12.407696
RightHandThumb1 -24.326973 -0.000000 -32.862282
LeftUpLeg -7.329931 13.247967 -2.454823
LeftLeg 17.554289 -0.000000 -0.000000
LeftFoot -34.759645 30.657220 -24.308817
LeftToeBase 8.634972 -0.000000 -0.000000
RightUpLeg -47.879184 -22.013575 -0.997415
RightLeg 35.368362 -0.000000 -0.000000
RightFoot -5.497905 -14.251165 10.618421
RightToeBase 11.118057 -0.000000 -0.000000
1595
root -0.040307 31.767327 -5.053358 4.951544 -15.302065 -10.498033
Spine 4.181590 -6.396247 2.313963
Head 11.550417 -16.865902 12.230814
LeftShoulder -15.655057 18.284039 13.801398
LeftArm 1.966528 -39.360596 -76.379310
LeftForeArm -5.638565 0.000000 104.258487
LeftHand -12.370707 0.000000 20.926650
LeftHandThumb1 -26.253704 0.000000 33.147579
RightShoulder -11.678929 -0.985052 -6.698065
RightArm 12.162695 -35.644641 72.566613
RightForeArm -27.324090 -0.000000 24.608851
RightHand -13.870171 0.000000 12.441317
RightHandThumb1 -24.326973 -0.000000 -32.862282
LeftUpLeg -7.244997 13.354710 -2.518231
LeftLeg 17.547224 -0.000000 -0.000000
LeftFoot -34.811757 30.537617 -24.481295
LeftToeBase 8.678279 -0.000000 -0.000000
RightUpLeg -47.531532 -21.877835 -1.396973
RightLeg 32.558999 -0.000000 -0.000000
RightFoot -5.863412 -15.018347 10.483532
RightToeBase 10.177160 -0.000000 -0.000000
1596
root -0.029465 31.764896 -5.046091 4.857246 -15.356206 -10.429839
Spine 4.218567 -6.405776 2.224898
Head 11.739776 -16.798816 12.099070
LeftShoulder -15.648990 18.304064 13.795441
LeftArm 1.907919 -39.505584 -76.288178
LeftForeArm -5.558129 -0.000000 104.186402
LeftHand -12.378597 -0.000000 21.112903
LeftHandThumb1 -26.253704 0.000000 33.147579
RightShoulder -11.713071 -1.034875 -6.677013
RightArm 12.091001 -35.638513 72.611698
RightForeArm -27.314093 0.000000 24.517884
RightHand -13.782006 -0.000000 12.329546
RightHandThumb1 -24.326973 -0.000000 -32.862282
LeftUpLeg -7.139805 13.457347 -2.580084
LeftLeg 17.529249 -0.000000 -0.000000
LeftFoot -34.883123 30.291906 -24.772567
LeftToeBase 8.633111 -0.000000 -0.000000
RightUpLeg -47.150542 -21.748189 -1.841301
RightLeg 29.736777 -0.000000 -0.000000
RightFoot -6.226647 -15.724747 10.148462
RightToeBase 9.058185 -0.000000 -0.000000
1597
root -0.018669 31.761713 -5.033821 4.764732 -15.369423 -10.331468
Spine 4.219144 -6.478639 2.113727
Head 11.965465 -16.702757 11.958776
LeftShoulder -15.685598 18.366888 13.757095
LeftArm 1.899471 -39.664799 -76.205610
LeftForeArm -5.438018 -0.000000 104.107248
LeftHand -12.382091 -0.000000 21.173348
LeftHandThumb1 -26.253704 0.000000 33.147579
RightShoulder -11.727091 -1.092202 -6.652318
RightArm 11.960194 -35.535938 72.702989
RightForeArm -27.404640 0.000000 24.506010
RightHand -13.847245 -0.000000 12.425013
RightHandThumb1 -24.326973 -0.000000 -32.862282
LeftUpLeg -7.035507 13.524877 -2.678914
LeftLeg 17.495165 -0.000000 -0.000000
LeftFoot -34.891975 30.230423 -24.838967
LeftToeBase 8.683686 -0.000000 -0.000000
RightUpLeg -46.765682 -21.673015 -2.326956
RightLeg 26.915015 -0.000000 -0.000000
RightFoot -6.655384 -16.384581 9.805189
RightToeBase 8.101317 -0.000000 -0.000000
1598
root -0.005280 31.757148 -5.021864 4.655163 -15.411834 -10.219975
Spine 4.247185 -6.530754 1.991138
Head 12.153077 -16.583533 11.823683
LeftShoulder -15.731782 18.394182 13.717174
LeftArm 1.866743 -39.821830 -76.110229
LeftForeArm -5.299173 -0.000000 104.040960
LeftHand -12.471605 -0.000000 21.166656
LeftHandThumb1 -26.253704 0.000000 33.147579
RightShoulder -11.759038 -1.147375 -6.657079
RightArm 11.907375 -35.567492 72.754769
RightForeArm -27.365867 -0.000000 24.428341
RightHand -13.813667 -0.000000 12.327451
RightHandThumb1 -24.326973 -0.000000 -32.862282
LeftUpLeg -6.910830 13.589759 -2.789986
LeftLeg 17.439699 -0.000000 -0.000000
LeftFoot -34.830478 30.258383 -24.758791
LeftToeBase 8.733805 -0.000000 -0.000000
RightUpLeg -46.394110 -21.627743 -2.771475
RightLeg 24.074618 -0.000000 -0.000000
RightFoot -7.056106 -17.083536 9.543563
RightToeBase 7.242621 -0.000000 -0.000000
